<?xml version="1.0" standalone="no"?>
<!DOCTYPE svg PUBLIC "-//W3C//DTD SVG 20010904//EN"
 "http://www.w3.org/TR/2001/REC-SVG-20010904/DTD/svg10.dtd">
<svg version="1.0" xmlns="http://www.w3.org/2000/svg"
 width="260.000000pt" height="260.000000pt" viewBox="0 0 260.000000 260.000000"
 preserveAspectRatio="xMidYMid meet">
<metadata>
Created by potrace 1.11, written by Peter Selinger 2001-2013
</metadata>
<g transform="translate(0.000000,260.000000) scale(0.100000,-0.100000)"
fill="#000000" stroke="none">
<path d="M745 2507 c-18 -28 -55 -134 -55 -156 1 -9 11 17 24 57 13 40 31 84
40 97 9 14 14 25 11 25 -2 0 -11 -10 -20 -23z"/>
<path d="M805 2516 c35 -16 153 -137 209 -213 21 -29 40 -53 42 -53 3 0 -13
26 -36 59 -53 76 -202 221 -226 221 -13 -1 -10 -5 11 -14z"/>
<path d="M1723 2458 c-70 -68 -136 -146 -176 -210 -33 -53 -9 -28 39 40 56 79
166 197 209 223 17 11 24 19 16 19 -7 0 -47 -33 -88 -72z"/>
<path d="M1830 2526 c0 -2 7 -7 16 -10 8 -3 12 -2 9 4 -6 10 -25 14 -25 6z"/>
<path d="M1882 2443 c13 -34 24 -60 27 -58 5 6 -29 97 -40 110 -5 5 1 -18 13
-52z"/>
<path d="M784 2354 c-24 -57 -34 -129 -34 -241 0 -116 8 -130 57 -95 15 11 61
36 101 56 55 28 72 41 72 57 0 25 -94 209 -122 239 -29 31 -57 26 -74 -16z"/>
<path d="M1748 2362 c-33 -39 -118 -205 -118 -230 0 -14 20 -30 73 -57 39 -21
87 -49 105 -62 18 -14 36 -22 40 -18 4 4 7 68 6 143 -1 215 -42 300 -106 224z"/>
<path d="M1911 2354 c0 -11 3 -14 6 -6 3 7 2 16 -1 19 -3 4 -6 -2 -5 -13z"/>
<path d="M681 2314 c0 -11 3 -14 6 -6 3 7 2 16 -1 19 -3 4 -6 -2 -5 -13z"/>
<path d="M1921 2314 c0 -11 3 -14 6 -6 3 7 2 16 -1 19 -3 4 -6 -2 -5 -13z"/>
<path d="M672 2265 c0 -16 2 -22 5 -12 2 9 2 23 0 30 -3 6 -5 -1 -5 -18z"/>
<path d="M1932 2260 c0 -19 2 -27 5 -17 2 9 2 25 0 35 -3 9 -5 1 -5 -18z"/>
<path d="M657 2161 c-4 -35 -6 -96 -6 -135 2 -62 3 -56 10 44 10 129 7 189 -4
91z"/>
<path d="M1947 2085 c3 -77 8 -145 12 -152 8 -15 2 144 -9 227 -6 45 -7 23 -3
-75z"/>
<path d="M576 1719 c-9 -40 -18 -98 -21 -128 -2 -31 -2 -45 1 -31 2 14 14 69
25 123 24 114 19 144 -5 36z"/>
<path d="M2022 1735 c-1 -11 8 -60 18 -110 15 -69 19 -77 14 -35 -6 61 -32
176 -32 145z"/>
<path d="M535 1454 c-12 -124 0 -367 25 -484 77 -377 147 -536 303 -693 95
-95 163 -138 285 -180 149 -51 245 -40 432 51 98 47 234 181 303 298 45 76
111 246 104 267 -1 5 -11 -16 -20 -47 l-18 -56 -27 14 c-35 18 -100 83 -120
121 -16 29 -17 29 -20 7 -4 -29 32 -151 65 -215 l24 -49 -47 -55 c-65 -76
-135 -130 -221 -169 -99 -47 -173 -64 -273 -64 -224 0 -422 84 -534 226 l-45
57 29 56 c32 65 60 153 60 190 l-1 26 -16 -30 c-29 -56 -97 -115 -133 -115
-25 0 -67 126 -116 349 -4 21 3 17 50 -27 108 -98 214 -128 305 -87 43 19 57
42 19 30 -99 -32 -208 39 -295 194 -14 25 -46 77 -71 116 l-45 69 6 138 c3 76
4 138 2 138 -2 0 -7 -34 -10 -76z"/>
<path d="M2068 1389 l5 -146 -30 -44 c-16 -24 -46 -75 -67 -114 -57 -104 -103
-160 -158 -190 -42 -23 -59 -27 -104 -23 -47 4 -52 3 -41 -10 19 -23 72 -42
120 -42 48 0 93 24 189 103 l57 46 -6 -37 c-12 -74 5 -24 26 77 17 82 21 138
20 270 0 91 -4 186 -8 211 -5 26 -6 -16 -3 -101z"/>
<path d="M1940 1380 c-47 -15 -116 -38 -155 -50 -122 -38 -227 -138 -279 -266
-13 -32 -24 -60 -23 -60 5 -4 216 54 248 68 56 24 106 75 151 152 23 39 67 94
98 122 30 29 53 54 50 57 -3 2 -43 -8 -90 -23z m-106 -122 c-24 -47 -100 -124
-142 -144 -36 -17 -112 -36 -112 -27 0 7 33 57 64 96 43 54 133 105 189 107
16 0 17 -2 1 -32z"/>
<path d="M627 1345 c34 -30 82 -83 106 -118 81 -114 178 -180 282 -193 28 -4
62 -13 78 -21 25 -13 27 -12 27 8 0 12 -16 54 -34 94 -42 87 -111 154 -199
195 -57 27 -272 90 -307 90 -8 0 13 -25 47 -55z m245 -81 c45 -23 97 -74 125
-121 14 -24 23 -46 20 -49 -19 -19 -159 56 -193 103 -21 28 -54 88 -54 97 0 7
71 -14 102 -30z"/>
<path d="M2016 854 c-4 -20 -5 -38 -3 -40 3 -3 8 11 11 32 4 20 5 38 3 40 -3
3 -8 -11 -11 -32z"/>
<path d="M1402 786 c-20 -19 -34 -37 -30 -41 7 -8 88 53 88 67 0 17 -21 7 -58
-26z"/>
<path d="M1195 784 c39 -33 65 -47 65 -36 0 18 -53 62 -74 62 -19 -1 -18 -3 9
-26z"/>
<path d="M2001 784 c0 -11 3 -14 6 -6 3 7 2 16 -1 19 -3 4 -6 -2 -5 -13z"/>
<path d="M835 561 c-9 -44 11 -106 45 -135 64 -53 145 -43 229 29 80 68 119
85 196 85 78 0 91 -6 170 -78 73 -66 134 -96 181 -89 43 7 90 40 109 77 15 30
21 130 8 130 -5 0 -8 -24 -9 -53 0 -63 -24 -104 -71 -124 -30 -12 -38 -12 -76
5 -23 10 -80 51 -126 91 -46 40 -95 77 -108 82 -14 5 -53 9 -89 9 -80 0 -115
-17 -204 -100 -79 -74 -125 -91 -175 -67 -44 21 -68 67 -63 123 4 50 -7 59
-17 15z"/>
</g>
</svg>
