<?xml version="1.0" standalone="no"?>
<!DOCTYPE svg PUBLIC "-//W3C//DTD SVG 20010904//EN"
 "http://www.w3.org/TR/2001/REC-SVG-20010904/DTD/svg10.dtd">
<svg version="1.0" xmlns="http://www.w3.org/2000/svg"
 width="260.000000pt" height="260.000000pt" viewBox="0 0 260.000000 260.000000"
 preserveAspectRatio="xMidYMid meet">
<metadata>
Created by potrace 1.11, written by Peter Selinger 2001-2013
</metadata>
<g transform="translate(0.000000,260.000000) scale(0.100000,-0.100000)"
fill="#000000" stroke="none">
<path d="M790 2371 c-22 -43 -40 -152 -40 -254 0 -120 8 -134 57 -99 15 11 61
36 101 56 55 28 72 41 72 57 0 26 -84 191 -117 230 -29 33 -58 37 -73 10z"/>
<path d="M1748 2362 c-34 -40 -118 -205 -118 -231 0 -16 17 -29 73 -57 39 -20
87 -48 106 -61 48 -36 53 -22 48 132 -7 211 -47 290 -109 217z"/>
<path d="M1966 1389 c-27 -11 -83 -29 -125 -41 -112 -30 -158 -55 -226 -123
-45 -43 -72 -82 -99 -139 -21 -43 -35 -80 -32 -83 3 -3 18 -1 33 5 15 6 57 18
93 26 144 32 214 83 280 200 26 46 57 85 89 111 28 22 50 46 51 53 0 16 -5 15
-64 -9z m-148 -151 c-33 -58 -102 -115 -164 -135 -30 -9 -57 -14 -60 -10 -11
11 35 74 88 122 46 41 131 80 151 68 4 -2 -3 -23 -15 -45z"/>
<path d="M580 1392 c0 -5 23 -28 51 -52 28 -23 75 -75 104 -114 88 -120 154
-166 269 -191 33 -7 73 -16 89 -20 37 -10 36 10 -8 100 -39 82 -110 155 -190
194 -41 21 -278 91 -305 91 -6 0 -10 -4 -10 -8z m278 -124 c51 -25 117 -85
145 -136 18 -32 18 -32 -5 -32 -57 1 -152 65 -194 131 -41 65 -27 75 54 37z"/>
<path d="M2051 1212 c-14 -20 -45 -73 -69 -117 -68 -123 -109 -172 -170 -202
-41 -20 -62 -24 -98 -20 -54 6 -55 -9 -3 -35 60 -31 118 -24 189 23 34 23 84
62 111 88 l50 46 15 105 c8 60 12 115 7 127 -8 21 -9 20 -32 -15z"/>
<path d="M531 1203 c0 -21 4 -73 8 -116 8 -75 11 -81 52 -124 60 -62 149 -119
209 -133 42 -10 58 -9 105 5 72 23 72 41 0 37 -45 -3 -63 1 -100 23 -48 28
-108 97 -152 174 -49 86 -105 171 -114 171 -5 0 -9 -17 -8 -37z"/>
<path d="M1170 805 c0 -8 4 -15 9 -15 5 0 24 -12 41 -26 17 -15 33 -24 36 -21
11 10 -17 47 -46 62 -36 19 -40 19 -40 0z"/>
<path d="M1405 789 c-19 -17 -32 -35 -29 -40 6 -10 84 47 84 62 0 17 -19 9
-55 -22z"/>
<path d="M601 784 c0 -11 3 -14 6 -6 3 7 2 16 -1 19 -3 4 -6 -2 -5 -13z"/>
<path d="M1781 749 c-1 -35 35 -152 65 -211 13 -26 24 -51 24 -55 0 -5 -31
-41 -69 -80 -127 -131 -290 -204 -461 -206 -113 -2 -208 15 -309 55 -88 34
-140 70 -201 135 -89 95 -85 83 -52 150 36 71 65 164 60 195 -3 21 -5 20 -22
-12 -32 -62 -89 -110 -130 -110 -9 0 -26 30 -45 78 -37 95 -40 81 -5 -30 70
-221 223 -418 391 -506 207 -107 344 -107 553 -2 135 68 259 205 350 385 l30
60 -22 15 c-30 21 -131 121 -145 145 -11 19 -12 19 -12 -6z"/>
<path d="M1250 590 c-49 -9 -86 -31 -150 -91 -30 -28 -65 -58 -76 -66 -24 -15
-77 -20 -111 -9 -33 10 -63 66 -63 117 -1 36 -2 41 -11 25 -14 -23 -5 -80 16
-113 56 -84 165 -82 261 6 65 61 112 81 189 81 78 0 91 -6 170 -78 102 -93
171 -112 238 -67 54 37 72 80 68 163 -2 44 -17 21 -17 -28 0 -64 -20 -99 -69
-121 -35 -16 -43 -16 -74 -3 -19 8 -65 40 -103 72 -38 31 -82 67 -98 80 -32
26 -114 41 -170 32z"/>
</g>
</svg>
